<svg width="25" height="25" viewBox="0 0 25 25" fill="none" xmlns="http://www.w3.org/2000/svg">
<g clip-path="url(#clip0)">
<path d="M4.26095 19.1397L18.4414 4.95932C19.5175 3.88615 21.2593 3.88615 22.3357 4.95932L24.0007 6.6243C24.5662 5.55732 24.3711 4.24656 23.5191 3.39056L21.6477 1.51917C20.5713 0.446003 18.8295 0.446003 17.7533 1.51917L3.57292 15.6996L0.690182 24.3411L2.75427 23.6531L4.26095 19.1397Z" fill="#52BF90"/>
<path d="M17.0172 2.25533C16.7492 1.98764 16.3149 1.98764 16.047 2.25533C15.779 2.52329 15.779 2.95761 16.047 3.22556L21.8057 8.98432C21.935 9.1144 22.1113 9.18643 22.2943 9.18401C22.4768 9.1832 22.6521 9.11171 22.783 8.98432C22.9117 8.85585 22.984 8.68116 22.984 8.4992C22.984 8.31725 22.9117 8.14283 22.783 8.01436L17.0172 2.25533Z" fill="#398564"/>
<path d="M22.129 1.03084C20.7849 -0.310818 18.6085 -0.310818 17.2644 1.03084L3.0566 15.2387C3.04988 15.2454 3.04988 15.2524 3.04289 15.2524C3.02919 15.2731 3.00849 15.2935 2.99479 15.3142C2.99479 15.3212 2.9878 15.3212 2.9878 15.3279C2.97409 15.3486 2.96737 15.3623 2.9534 15.383C2.94668 15.39 2.94668 15.3967 2.93969 15.4037C2.93297 15.4244 2.92598 15.4381 2.91899 15.4588C2.91899 15.4655 2.91228 15.4655 2.91228 15.4725L0.0362554 24.121C-0.0481357 24.3672 0.0160983 24.64 0.201275 24.8227C0.331625 24.9512 0.507126 25.023 0.689884 25.0224C0.7646 25.0211 0.83851 25.0095 0.91 24.988L9.55177 22.105C9.55849 22.105 9.55849 22.105 9.56547 22.0983C9.58724 22.0918 9.60821 22.0827 9.62729 22.0706C9.63267 22.0701 9.6375 22.0677 9.64127 22.0639C9.66169 22.0502 9.68937 22.0362 9.71007 22.0225C9.73049 22.0088 9.75119 21.9881 9.77188 21.9744C9.77887 21.9674 9.78559 21.9674 9.78559 21.9607C9.79258 21.9537 9.80629 21.947 9.81327 21.933L23.9934 7.75285C25.3351 6.40877 25.3351 4.23234 23.9934 2.88853L22.129 1.03084ZM1.77703 23.2542L3.86853 16.9725L8.05181 21.1557L1.77703 23.2542ZM23.0235 6.78961L9.33165 20.4881L4.54285 15.6996L18.2416 2.0008C19.0474 1.19586 20.353 1.19586 21.1588 2.0008L23.0302 3.87219C23.8297 4.68144 23.8268 5.98413 23.0235 6.78961Z" fill="#398564"/>
</g>
<defs>
<clipPath id="clip0">
<rect width="25" height="25" fill="white"/>
</clipPath>
</defs>
</svg>
