<svg width="25" height="25" viewBox="0 0 25 25" fill="none" xmlns="http://www.w3.org/2000/svg">
<path d="M12.5 0C5.60722 0 0 5.60722 0 12.5C0 19.3928 5.60722 25 12.5 25C19.3928 25 25 19.3928 25 12.5C25 5.60722 19.3928 0 12.5 0Z" fill="#398564"/>
<path d="M20.3751 14.0076H13.9999V20.4154C13.9999 21.2478 13.3281 21.9231 12.5 21.9231C11.6719 21.9231 11.0001 21.2478 11.0001 20.4154V14.0076H4.62492C3.79682 14.0076 3.125 13.3323 3.125 12.5C3.125 11.6676 3.79682 10.9924 4.62492 10.9924H11.0001V4.58452C11.0001 3.75217 11.6719 3.0769 12.5 3.0769C13.3281 3.0769 13.9999 3.75217 13.9999 4.58452V10.9924H20.3751C21.2032 10.9924 21.875 11.6676 21.875 12.5C21.875 13.3323 21.2032 14.0076 20.3751 14.0076Z" fill="#FAFAFA"/>
</svg>
