<svg width="25" height="25" viewBox="0 0 25 25" fill="none" xmlns="http://www.w3.org/2000/svg">
<path d="M12.5488 0C5.67871 0 0 5.58105 0 12.4512C0 19.3213 5.67871 25 12.5488 25C19.4189 25 25 19.3213 25 12.4512C25 5.58105 19.4189 0 12.5488 0Z" fill="#CECCCC"/>
<path d="M25 12.4512C25 19.3213 19.4189 25 12.5488 25V0C19.4189 0 25 5.58105 25 12.4512Z" fill="#CECCCC"/>
<path d="M22.8469 12.7604C22.8469 13.763 22.0055 14.5833 20.977 14.5833H4.02306C2.9946 14.5833 2.15314 13.763 2.15314 12.7604C2.15314 11.7578 2.9946 10.9375 4.02306 10.9375H20.977C22.0055 10.9375 22.8469 11.7578 22.8469 12.7604Z" fill="white"/>
</svg>
