<svg width="26" height="40" viewBox="0 0 26 40" fill="none" xmlns="http://www.w3.org/2000/svg">
<path d="M6.71472 0H19.2852C20.0047 0 20.6948 0.219875 21.2036 0.611255C21.7124 1.00264 21.9982 1.53346 21.9982 2.08696V9.1593H4.00168V2.08696C4.00168 1.53346 4.28752 1.00264 4.79631 0.611255C5.30511 0.219875 5.99518 0 6.71472 0Z" fill="#0E8BCE"/>
<path d="M10.9652 3.01471H15.0348V7.3914H10.9652V3.01471Z" fill="#EAEAF0"/>
<path d="M15.7131 3.62334H10.287C10.0771 3.62334 9.87583 3.55921 9.72743 3.44505C9.57904 3.3309 9.49567 3.17608 9.49567 3.01464C9.49567 2.8532 9.57904 2.69838 9.72743 2.58423C9.87583 2.47008 10.0771 2.40594 10.287 2.40594H15.7131C15.9229 2.40594 16.1242 2.47008 16.2726 2.58423C16.421 2.69838 16.5044 2.8532 16.5044 3.01464C16.5044 3.17608 16.421 3.3309 16.2726 3.44505C16.1242 3.55921 15.9229 3.62334 15.7131 3.62334Z" fill="#EAEAF0"/>
<path d="M20.5739 6.15369H5.42609C2.42934 6.15369 0 8.02241 0 10.3276V35.826C0 38.1312 2.42934 39.9999 5.42609 39.9999H20.5739C23.5707 39.9999 26 38.1312 26 35.826V10.3276C26 8.02241 23.5707 6.15369 20.5739 6.15369Z" fill="#3BA9FD"/>
<path d="M23.287 16.0287C23.0771 16.0286 22.8759 15.9645 22.7276 15.8503C22.5792 15.7362 22.4958 15.5814 22.4957 15.42V12.8113C22.4957 12.6499 22.579 12.4951 22.7274 12.3809C22.8758 12.2668 23.0771 12.2026 23.287 12.2026C23.4968 12.2026 23.6981 12.2668 23.8465 12.3809C23.9949 12.4951 24.0783 12.6499 24.0783 12.8113V15.42C24.0782 15.5814 23.9947 15.7362 23.8464 15.8503C23.698 15.9645 23.4968 16.0286 23.287 16.0287Z" fill="#0E8BCE"/>
<path d="M0 20.9899H26V25.1638H0V20.9899Z" fill="#0E8BCE"/>
</svg>
