<svg width="26" height="40" viewBox="0 0 26 40" fill="none" xmlns="http://www.w3.org/2000/svg">
<path d="M6.71481 0H19.2853C20.0048 0 20.6949 0.219875 21.2037 0.611255C21.7125 1.00264 21.9983 1.53346 21.9983 2.08696V9.1593H4.00177V2.08696C4.00177 1.53346 4.28761 1.00264 4.7964 0.611255C5.3052 0.219875 5.99527 0 6.71481 0Z" fill="#FF748C"/>
<path d="M10.9652 3.01459H15.0348V7.39128H10.9652V3.01459Z" fill="#EAEAF0"/>
<path d="M15.7131 3.62321H10.287C10.0771 3.62321 9.87583 3.55908 9.72743 3.44493C9.57904 3.33078 9.49567 3.17595 9.49567 3.01452C9.49567 2.85308 9.57904 2.69826 9.72743 2.58411C9.87583 2.46995 10.0771 2.40582 10.287 2.40582H15.7131C15.9229 2.40582 16.1242 2.46995 16.2726 2.58411C16.421 2.69826 16.5044 2.85308 16.5044 3.01452C16.5044 3.17595 16.421 3.33078 16.2726 3.44493C16.1242 3.55908 15.9229 3.62321 15.7131 3.62321Z" fill="#EAEAF0"/>
<path d="M20.5739 6.15375H5.42609C2.42934 6.15375 0 8.02247 0 10.3277V35.8261C0 38.1313 2.42934 40 5.42609 40H20.5739C23.5707 40 26 38.1313 26 35.8261V10.3277C26 8.02247 23.5707 6.15375 20.5739 6.15375Z" fill="#FFC0CB"/>
<path d="M23.287 16.0289C23.0771 16.0288 22.8759 15.9647 22.7276 15.8505C22.5792 15.7364 22.4958 15.5816 22.4957 15.4202V12.8115C22.4957 12.6501 22.579 12.4953 22.7274 12.3811C22.8758 12.2669 23.0771 12.2028 23.287 12.2028C23.4968 12.2028 23.6981 12.2669 23.8465 12.3811C23.9949 12.4953 24.0783 12.6501 24.0783 12.8115V15.4202C24.0782 15.5816 23.9947 15.7364 23.8464 15.8505C23.698 15.9647 23.4968 16.0288 23.287 16.0289Z" fill="#FF748C"/>
<path d="M0 20.9898H26V25.1637H0V20.9898Z" fill="#FF748C"/>
</svg>
