<svg width="16" height="16" viewBox="0 0 16 16" fill="none" xmlns="http://www.w3.org/2000/svg">
<path fill-rule="evenodd" clip-rule="evenodd" d="M10.3734 9.80503H11.0057L15 13.8073L13.8073 15L9.80503 11.0057V10.3734L9.58891 10.1492C8.67639 10.9337 7.49171 11.4059 6.20297 11.4059C3.32933 11.4059 1 9.07662 1 6.20297C1 3.32933 3.32933 1 6.20297 1C9.07662 1 11.4059 3.32933 11.4059 6.20297C11.4059 7.49171 10.9337 8.67639 10.1492 9.58891L10.3734 9.80503ZM2.60089 6.20298C2.60089 8.19612 4.20981 9.80503 6.20295 9.80503C8.19609 9.80503 9.80501 8.19612 9.80501 6.20298C9.80501 4.20984 8.19609 2.60092 6.20295 2.60092C4.20981 2.60092 2.60089 4.20984 2.60089 6.20298Z" fill="#52BF90"/>
<path d="M11.0057 9.80503L11.3596 9.45183L11.2131 9.30503H11.0057V9.80503ZM10.3734 9.80503L10.0263 10.165L10.1716 10.305H10.3734V9.80503ZM15 13.8073L15.3536 14.1609L15.7068 13.8077L15.3539 13.4541L15 13.8073ZM13.8073 15L13.4541 15.3539L13.8077 15.7068L14.1609 15.3536L13.8073 15ZM9.80503 11.0057H9.30503V11.2131L9.45183 11.3596L9.80503 11.0057ZM9.80503 10.3734H10.305V10.1716L10.165 10.0263L9.80503 10.3734ZM9.58891 10.1492L9.94883 9.80216L9.62105 9.46224L9.26297 9.77007L9.58891 10.1492ZM10.1492 9.58891L9.77007 9.26297L9.46224 9.62105L9.80216 9.94883L10.1492 9.58891ZM11.0057 9.30503H10.3734V10.305H11.0057V9.30503ZM15.3539 13.4541L11.3596 9.45183L10.6518 10.1582L14.6461 14.1605L15.3539 13.4541ZM14.1609 15.3536L15.3536 14.1609L14.6464 13.4538L13.4538 14.6464L14.1609 15.3536ZM9.45183 11.3596L13.4541 15.3539L14.1605 14.6461L10.1582 10.6518L9.45183 11.3596ZM9.30503 10.3734V11.0057H10.305V10.3734H9.30503ZM9.22899 10.4963L9.44511 10.7204L10.165 10.0263L9.94883 9.80216L9.22899 10.4963ZM6.20297 11.9059C7.61597 11.9059 8.91523 11.3877 9.91485 10.5284L9.26297 9.77007C8.43754 10.4796 7.36745 10.9059 6.20297 10.9059V11.9059ZM0.5 6.20297C0.5 9.35276 3.05319 11.9059 6.20297 11.9059V10.9059C3.60547 10.9059 1.5 8.80047 1.5 6.20297H0.5ZM6.20297 0.5C3.05319 0.5 0.5 3.05319 0.5 6.20297H1.5C1.5 3.60547 3.60547 1.5 6.20297 1.5V0.5ZM11.9059 6.20297C11.9059 3.05319 9.35276 0.5 6.20297 0.5V1.5C8.80047 1.5 10.9059 3.60547 10.9059 6.20297H11.9059ZM10.5284 9.91485C11.3877 8.91523 11.9059 7.61597 11.9059 6.20297H10.9059C10.9059 7.36745 10.4796 8.43754 9.77007 9.26297L10.5284 9.91485ZM10.7204 9.44511L10.4963 9.22899L9.80216 9.94883L10.0263 10.165L10.7204 9.44511ZM6.20295 9.30503C4.48595 9.30503 3.10089 7.91997 3.10089 6.20298H2.10089C2.10089 8.47226 3.93367 10.305 6.20295 10.305V9.30503ZM9.30501 6.20298C9.30501 7.91997 7.91995 9.30503 6.20295 9.30503V10.305C8.47223 10.305 10.305 8.47226 10.305 6.20298H9.30501ZM6.20295 3.10092C7.91995 3.10092 9.30501 4.48598 9.30501 6.20298H10.305C10.305 3.93369 8.47223 2.10092 6.20295 2.10092V3.10092ZM3.10089 6.20298C3.10089 4.48598 4.48595 3.10092 6.20295 3.10092V2.10092C3.93367 2.10092 2.10089 3.93369 2.10089 6.20298H3.10089Z" fill="#52BF90"/>
</svg>
