<svg width="28" height="30" viewBox="0 0 28 30" fill="none" xmlns="http://www.w3.org/2000/svg">
<path d="M17.7487 0H8.33212V6.7347H17.7487V0Z" fill="#398564"/>
<path d="M19.185 0H15.993V6.7347H19.185V0Z" fill="#398564"/>
<path d="M13.9182 3.8266H11.6837V6.73476H13.9182V3.8266Z" fill="#F9D62E"/>
<path d="M24.4519 26.6327H3.38437V30H24.4519V26.6327Z" fill="#398564"/>
<path d="M24.4519 26.6327H21.8982V30H24.4519V26.6327Z" fill="#398564"/>
<path d="M25.0903 11.7092C25.0903 8.96185 21.8849 6.73468 17.931 6.73468L7.19195 6.7348C3.238 6.7348 0.0327454 8.96191 0.0327454 11.7092L0.0328281 24.1454C0.0328281 25.5191 1.6355 26.6326 3.61247 26.6326H21.5105C23.4875 26.6326 25.0902 25.5191 25.0902 24.1454L25.0903 11.7092Z" fill="#52BF90"/>
<path d="M20.3742 6.73468H17.589C21.6915 6.7352 25.017 8.96214 25.017 11.7092L25.0169 24.1454C25.0169 25.5191 23.3538 26.6326 21.3023 26.6326H24.0889C26.1404 26.6326 27.8035 25.5191 27.8035 24.1454L27.8036 11.7092C27.8035 8.96191 24.4773 6.73468 20.3742 6.73468Z" fill="#52BF90"/>
<path d="M0 13.7594H28V19.2151H0V13.7594Z" fill="#398564"/>
</svg>
