<svg width="71" height="78" viewBox="0 0 71 78" fill="none" xmlns="http://www.w3.org/2000/svg">
<g clip-path="url(#clip0)">
<path d="M45.0054 0.69162H21.1277V17.9737H45.0054V0.69162Z" fill="#49AB81"/>
<path d="M48.6478 0.69162H40.5536V17.9737H48.6478V0.69162Z" fill="#398564"/>
<path d="M35.2925 10.511H29.6266V17.9737H35.2925V10.511Z" fill="#F9D62E"/>
<path d="M62.0031 69.0345H8.58185V77.6755H62.0031V69.0345Z" fill="#49AB81"/>
<path d="M62.0031 69.0345H55.5278V77.6755H62.0031V69.0345Z" fill="#398564"/>
<path d="M63.6219 30.7391C63.6219 23.6889 55.4939 17.9737 45.4678 17.9737L18.2367 17.974C8.21062 17.974 0.0830173 23.6891 0.0830173 30.7391L0.0832273 62.6519C0.0832273 66.1769 4.14714 69.0345 9.16018 69.0345H54.5445C59.5576 69.0345 63.6215 66.1769 63.6215 62.6519L63.6219 30.7391Z" fill="#52BF90"/>
<path d="M51.6632 17.9737H44.6007C55.0035 17.9751 63.436 23.6897 63.436 30.7391L63.4357 62.6519C63.4357 66.1769 59.2186 69.0345 54.0166 69.0345H61.0825C66.2846 69.0345 70.5017 66.1769 70.5017 62.6519L70.5019 30.7391C70.5017 23.6891 62.0674 17.9737 51.6632 17.9737Z" fill="#398564"/>
<path d="M48.5255 34.379C44.9956 32.1694 39.9258 32.6992 37.2017 35.5624C36.45 36.3524 35.9309 37.2715 35.6841 38.249L38.41 38.6996C39.0001 36.3769 41.7999 34.882 44.6635 35.3605C46.6078 35.6855 48.1646 36.8655 48.6959 38.4169L51.3776 37.8176C50.9064 36.4528 49.9064 35.2472 48.5255 34.379Z" fill="#18392B"/>
<path d="M16.4313 28.2669L17.3805 26.1461C13.1011 24.8924 8.37718 26.6793 6.81061 30.1442L9.42346 30.918C10.4622 28.6209 13.594 27.4362 16.4313 28.2669Z" fill="#18392B"/>
<path d="M42.2462 26.1852L43.2205 28.2984C46.0491 27.4451 49.1961 28.6047 50.2648 30.8939L52.8677 30.0985C51.2569 26.6464 46.511 24.898 42.2462 26.1852Z" fill="#18392B"/>
<path d="M13.9756 49.6776C13.9756 56.78 21.0741 62.5377 29.8304 62.5377C38.5868 62.5377 45.6853 56.78 45.6853 49.6776V43.5001H13.9756V49.6776ZM29.8304 60.2561C26.9816 60.2543 24.2116 59.4973 21.9422 58.1004L23.243 57.7139C27.4973 56.4545 32.163 56.4545 36.4173 57.7139L37.7195 58.1004C35.4544 59.5043 32.6811 60.2621 29.8304 60.2561ZM39.9433 56.3499L37.3727 55.5911C32.5011 54.1497 27.1585 54.1505 22.2876 55.5932L19.7205 56.348C17.8684 54.4995 16.8373 52.1991 16.7929 49.8174H42.8699C42.8524 52.2035 41.8185 54.5113 39.9433 56.3499ZM16.7572 45.7563H42.9037V47.5612H16.7572V45.7563Z" fill="#18392B"/>
<path d="M19.4019 36.1638C20.3074 36.7327 20.9634 37.5226 21.2733 38.4169L23.9548 37.8176C23.4838 36.4529 22.4842 35.2475 21.1037 34.379C17.5738 32.1694 12.5039 32.6994 9.77978 35.5625C9.0282 36.3525 8.50903 37.2715 8.26217 38.2491L10.9881 38.6996C11.5762 36.3776 14.3739 34.8819 17.2367 35.359C18.0246 35.4903 18.7652 35.7656 19.4023 36.1638H19.4019Z" fill="#18392B"/>
</g>
<defs>
<clipPath id="clip0">
<rect width="71" height="78" fill="white"/>
</clipPath>
</defs>
</svg>
