<svg width="88" height="105" viewBox="0 0 88 105" fill="none" xmlns="http://www.w3.org/2000/svg">
<path d="M55.7813 0.93103H26.1865V24.1954H55.7813V0.93103Z" fill="#49AB81"/>
<path d="M60.2958 0.93103H50.2637V24.1954H60.2958V0.93103Z" fill="#398564"/>
<path d="M43.7428 14.1494H36.7203V24.1954H43.7428V14.1494Z" fill="#F9D62E"/>
<path d="M76.8489 92.931H10.6367V104.563H76.8489V92.931Z" fill="#49AB81"/>
<path d="M76.8489 92.931H68.8232V104.563H76.8489V92.931Z" fill="#398564"/>
<path d="M78.8553 41.3796C78.8553 31.889 68.7811 24.1954 56.3544 24.1954L22.6033 24.1958C10.1766 24.1958 0.102905 31.8892 0.102905 41.3796L0.103165 84.3391C0.103165 89.0843 5.14012 92.931 11.3535 92.931H67.6045C73.8178 92.931 78.8548 89.0843 78.8548 84.3391L78.8553 41.3796Z" fill="#52BF90"/>
<path d="M64.0332 24.1954H55.2798C68.1733 24.1972 78.6249 31.8899 78.6249 41.3796L78.6246 84.3391C78.6246 89.0843 73.3977 92.931 66.9501 92.931H75.7079C82.1555 92.931 87.3824 89.0843 87.3824 84.3391L87.3826 41.3796C87.3824 31.8892 76.9287 24.1954 64.0332 24.1954Z" fill="#398564"/>
<path d="M39.229 71.7532C35.4607 71.758 31.7757 70.7331 28.6407 68.8085L26.3464 67.4099V71.3264C26.3464 77.8471 32.1449 83.1521 39.229 83.1521C46.3131 83.1521 52.1116 77.8471 52.1116 71.3264V67.4099L49.8174 68.8085C46.6823 70.7331 42.9973 71.7579 39.229 71.7532ZM39.229 80.4571C34.1626 80.4513 29.9127 76.9369 29.3656 72.3007C35.5733 75.164 42.8848 75.164 49.0924 72.3007C48.545 76.9367 44.2953 80.4509 39.229 80.4567V80.4571Z" fill="#18392B"/>
<path d="M25.1375 44.2604L26.1368 41.7271C21.6353 40.2305 16.6663 42.3636 15.0186 46.4997L17.7689 47.424C18.8606 44.6824 22.154 43.2683 25.1375 44.2604Z" fill="#18392B"/>
<path d="M52.2852 41.7731L53.3109 44.2972C56.2849 43.2791 59.5938 44.6628 60.7171 47.3942L63.4571 46.4439C61.7628 42.3235 56.771 40.2365 52.2852 41.7731Z" fill="#18392B"/>
<ellipse cx="55.59" cy="54.9865" rx="7.59" ry="6.9865" fill="white"/>
<path d="M55.589 48C51.3978 48 48 51.1276 48 54.9854C48 58.8433 51.3978 61.9709 55.589 61.9709C59.7803 61.9709 63.1781 58.8433 63.1781 54.9854V54.9853C63.1765 51.128 59.7797 48.0013 55.589 48ZM51.7945 59.1766C50.9563 59.1766 50.2767 58.5511 50.2767 57.7795C50.2767 57.0079 50.9563 56.3824 51.7945 56.3824C52.6328 56.3824 53.3123 57.0079 53.3123 57.7795C53.3098 58.55 52.6317 59.1742 51.7945 59.1766ZM57.1069 55.6839C55.4304 55.6839 54.0712 54.4328 54.0712 52.8897C54.0712 51.3465 55.4304 50.0955 57.1069 50.0955C58.7833 50.0955 60.1425 51.3465 60.1425 52.8897C60.1429 54.4324 58.7847 55.6835 57.1086 55.6839C57.108 55.6839 57.1074 55.6839 57.1069 55.6839Z" fill="#18392B"/>
<ellipse cx="23.59" cy="54.9865" rx="7.59" ry="6.9865" fill="white"/>
<path d="M23.589 48C19.3978 48 16 51.1276 16 54.9854C16 58.8433 19.3978 61.9709 23.589 61.9709C27.7803 61.9709 31.1781 58.8433 31.1781 54.9854V54.9853C31.1765 51.128 27.7797 48.0013 23.589 48ZM19.7945 59.1766C18.9563 59.1766 18.2767 58.5511 18.2767 57.7795C18.2767 57.0079 18.9563 56.3824 19.7945 56.3824C20.6328 56.3824 21.3123 57.0079 21.3123 57.7795C21.3098 58.55 20.6317 59.1742 19.7945 59.1766ZM25.1069 55.6839C23.4304 55.6839 22.0712 54.4328 22.0712 52.8897C22.0712 51.3465 23.4304 50.0955 25.1069 50.0955C26.7833 50.0955 28.1425 51.3465 28.1425 52.8897C28.1429 54.4324 26.7847 55.6835 25.1086 55.6839C25.108 55.6839 25.1074 55.6839 25.1069 55.6839Z" fill="#18392B"/>
</svg>
