<svg width="92" height="28" viewBox="0 0 92 28" fill="none" xmlns="http://www.w3.org/2000/svg">
<path d="M13.9453 0.24826H6.54663V6.45209H13.9453V0.24826Z" fill="#49AB81"/>
<path d="M15.074 0.24826H12.5659V6.45209H15.074V0.24826Z" fill="#398564"/>
<path d="M10.9357 3.77316H9.18005V6.45209H10.9357V3.77316Z" fill="#F9D62E"/>
<path d="M19.2122 24.7816H2.65918V27.8835H19.2122V24.7816Z" fill="#49AB81"/>
<path d="M19.2122 24.7816H17.2058V27.8835H19.2122V24.7816Z" fill="#398564"/>
<path d="M19.7139 11.0346C19.7139 8.50373 17.1953 6.45212 14.0886 6.45212L5.65085 6.45222C2.54417 6.45222 0.0257568 8.50379 0.0257568 11.0346L0.0258219 22.4904C0.0258219 23.7558 1.28506 24.7816 2.8384 24.7816H16.9012C18.4545 24.7816 19.7137 23.7558 19.7137 22.4904L19.7139 11.0346Z" fill="#52BF90"/>
<path d="M16.0083 6.45212H13.8199C17.0433 6.4526 19.6562 8.504 19.6562 11.0346L19.6562 22.4904C19.6562 23.7558 18.3494 24.7816 16.7375 24.7816H18.927C20.5389 24.7816 21.8456 23.7558 21.8456 22.4904L21.8457 11.0346C21.8456 8.50379 19.2322 6.45212 16.0083 6.45212Z" fill="#398564"/>
<path d="M13.7915 12.687C12.7437 12.687 11.8943 13.521 11.8943 14.5497C11.8943 15.5785 12.7437 16.4125 13.7915 16.4125C14.8394 16.4125 15.6888 15.5785 15.6888 14.5497V14.5497C15.6884 13.5211 14.8392 12.6873 13.7915 12.687ZM12.8429 15.6674C12.6334 15.6674 12.4635 15.5006 12.4635 15.2948C12.4635 15.0891 12.6334 14.9223 12.8429 14.9223C13.0525 14.9223 13.2224 15.0891 13.2224 15.2948C13.2217 15.5003 13.0522 15.6667 12.8429 15.6674ZM14.171 14.736C13.7519 14.736 13.4121 14.4024 13.4121 13.9909C13.4121 13.5794 13.7519 13.2458 14.171 13.2458C14.5901 13.2458 14.9299 13.5794 14.9299 13.9909C14.93 14.4023 14.5905 14.7359 14.1714 14.736C14.1713 14.736 14.1711 14.736 14.171 14.736Z" fill="#18392B"/>
<path d="M7.7203 14.5497C7.7203 13.5209 6.87085 12.6869 5.82304 12.6869C4.77523 12.6869 3.92578 13.5209 3.92578 14.5497C3.92578 15.5785 4.77523 16.4125 5.82304 16.4125C6.8707 16.4121 7.71993 15.5783 7.7203 14.5497ZM4.87441 15.6672C4.66485 15.6672 4.49496 15.5004 4.49496 15.2947C4.49496 15.0889 4.66485 14.9221 4.87441 14.9221C5.08397 14.9221 5.25386 15.0889 5.25386 15.2947C5.25331 15.5002 5.08375 15.6667 4.87441 15.6674V15.6672ZM6.20249 14.7358C5.78337 14.7358 5.44359 14.4022 5.44359 13.9907C5.44359 13.5792 5.78337 13.2456 6.20249 13.2456C6.62161 13.2456 6.96139 13.5792 6.96139 13.9907C6.96161 14.4021 6.62209 14.7358 6.20308 14.736C6.20289 14.736 6.20267 14.736 6.20249 14.736V14.7358Z" fill="#18392B"/>
<path d="M9.8072 19.1342C8.86512 19.1355 7.94387 18.8621 7.16012 18.3489L6.58655 17.976V19.0204C6.58655 20.7592 8.03617 22.1739 9.8072 22.1739C11.5782 22.1739 13.0279 20.7592 13.0279 19.0204V17.976L12.4543 18.3489C11.6705 18.8621 10.7493 19.1354 9.8072 19.1342ZM9.8072 21.4552C8.54061 21.4537 7.47812 20.5165 7.34135 19.2802C8.89327 20.0437 10.7211 20.0437 12.2731 19.2802C12.1362 20.5164 11.0738 21.4535 9.8072 21.4551V21.4552Z" fill="#18392B"/>
<path d="M6.28435 11.8027L6.53417 11.1272C5.40881 10.7281 4.16655 11.2969 3.75464 12.3999L4.44221 12.6464C4.71513 11.9153 5.53848 11.5382 6.28435 11.8027Z" fill="#18392B"/>
<path d="M13.0713 11.1396L13.3277 11.8127C14.0712 11.5412 14.8984 11.9102 15.1792 12.6386L15.8643 12.3852C15.4407 11.2864 14.1927 10.7299 13.0713 11.1396Z" fill="#18392B"/>
<path d="M41.26 10.94C42.38 10.94 43.2133 11.28 43.76 11.96C44.3067 12.64 44.58 13.68 44.58 15.08V21H41.56V15.18C41.56 14.5133 41.4533 14.0333 41.24 13.74C41.04 13.4467 40.6933 13.3 40.2 13.3C39.6267 13.3 39.18 13.5 38.86 13.9C38.54 14.3 38.38 14.86 38.38 15.58V21H35.36V15.18C35.36 14.5133 35.2533 14.0333 35.04 13.74C34.84 13.4467 34.4933 13.3 34 13.3C33.4267 13.3 32.98 13.5 32.66 13.9C32.34 14.3 32.18 14.86 32.18 15.58V21H29.16V11.18H32.1V12.5C32.4067 11.9933 32.8133 11.6067 33.32 11.34C33.84 11.0733 34.4333 10.94 35.1 10.94C36.5533 10.94 37.5267 11.5467 38.02 12.76C38.34 12.2 38.7867 11.76 39.36 11.44C39.9333 11.1067 40.5667 10.94 41.26 10.94ZM56.6153 11.2L50.6953 24.6H47.6353L49.5153 20.46L45.4753 11.2H48.6153L51.0953 17.44L53.6553 11.2H56.6153ZM69.8989 13.22V20.12C69.2189 20.4533 68.4189 20.7133 67.4989 20.9C66.5789 21.0867 65.6322 21.18 64.6589 21.18C63.1656 21.18 61.8722 20.8933 60.7789 20.32C59.6856 19.7333 58.8456 18.9 58.2589 17.82C57.6722 16.7267 57.3789 15.4333 57.3789 13.94C57.3789 12.4733 57.6656 11.2 58.2389 10.12C58.8256 9.02667 59.6589 8.18667 60.7389 7.6C61.8189 7.01333 63.0789 6.72 64.5189 6.72C65.5322 6.72 66.4722 6.86 67.3389 7.14C68.2189 7.42 68.9456 7.80667 69.5189 8.3L68.5389 10.52C67.8856 10.0533 67.2456 9.72 66.6189 9.52C66.0056 9.30667 65.3389 9.2 64.6189 9.2C61.8989 9.2 60.5389 10.78 60.5389 13.94C60.5389 15.5667 60.8922 16.78 61.5989 17.58C62.3056 18.38 63.3722 18.78 64.7989 18.78C65.5722 18.78 66.3389 18.68 67.0989 18.48V15.38H64.3389V13.22H69.8989ZM76.6645 10.94C78.1312 10.94 79.2112 11.2867 79.9045 11.98C80.6112 12.6733 80.9645 13.7467 80.9645 15.2V21H78.1045V19.54C77.9045 20.0467 77.5712 20.4467 77.1045 20.74C76.6379 21.02 76.0912 21.16 75.4645 21.16C74.7979 21.16 74.1912 21.0267 73.6445 20.76C73.1112 20.4933 72.6845 20.12 72.3645 19.64C72.0579 19.16 71.9045 18.6267 71.9045 18.04C71.9045 17.32 72.0845 16.7533 72.4445 16.34C72.8179 15.9267 73.4112 15.6267 74.2245 15.44C75.0379 15.2533 76.1512 15.16 77.5645 15.16H78.0845V14.8C78.0845 14.2133 77.9579 13.8 77.7045 13.56C77.4512 13.32 77.0112 13.2 76.3845 13.2C75.9045 13.2 75.3712 13.2867 74.7845 13.46C74.1979 13.6333 73.6379 13.8733 73.1045 14.18L72.3045 12.16C72.8645 11.8133 73.5512 11.5267 74.3645 11.3C75.1912 11.06 75.9579 10.94 76.6645 10.94ZM76.1245 19.08C76.7112 19.08 77.1845 18.8867 77.5445 18.5C77.9045 18.1 78.0845 17.5867 78.0845 16.96V16.62H77.7445C76.6645 16.62 75.9045 16.7067 75.4645 16.88C75.0379 17.0533 74.8245 17.3667 74.8245 17.82C74.8245 18.18 74.9445 18.48 75.1845 18.72C75.4379 18.96 75.7512 19.08 76.1245 19.08ZM87.0025 21.16C86.0958 21.16 85.2625 21.06 84.5025 20.86C83.7558 20.6467 83.1092 20.3467 82.5625 19.96L83.3625 17.88C83.8958 18.24 84.4825 18.52 85.1225 18.72C85.7625 18.92 86.4092 19.02 87.0625 19.02C87.5292 19.02 87.8892 18.9467 88.1425 18.8C88.4092 18.64 88.5425 18.4267 88.5425 18.16C88.5425 17.92 88.4492 17.7333 88.2625 17.6C88.0892 17.4667 87.7558 17.3467 87.2625 17.24L85.6625 16.88C84.7158 16.6667 84.0158 16.34 83.5625 15.9C83.1225 15.4467 82.9025 14.8333 82.9025 14.06C82.9025 13.4467 83.0758 12.9067 83.4225 12.44C83.7825 11.9733 84.2825 11.6067 84.9225 11.34C85.5758 11.0733 86.3158 10.94 87.1425 10.94C87.8492 10.94 88.5358 11.0467 89.2025 11.26C89.8692 11.4733 90.4692 11.7733 91.0025 12.16L90.2025 14.16C89.1625 13.44 88.1358 13.08 87.1225 13.08C86.6558 13.08 86.2892 13.16 86.0225 13.32C85.7558 13.48 85.6225 13.7067 85.6225 14C85.6225 14.2133 85.7025 14.38 85.8625 14.5C86.0225 14.62 86.3025 14.7333 86.7025 14.84L88.3625 15.22C89.3625 15.4467 90.0892 15.7933 90.5425 16.26C91.0092 16.7133 91.2425 17.3333 91.2425 18.12C91.2425 19.0667 90.8625 19.8133 90.1025 20.36C89.3558 20.8933 88.3225 21.16 87.0025 21.16Z" fill="#317256"/>
</svg>
